# AST/ASF file generated using VICON BodyLanguage
# -----------------------------------------------
:version 1.10
:name VICON
:units
  mass 1.0
  length 0.45
  angle deg
:documentation
   .ast/.asf automatically generated from VICON data using
   VICON BodyBuilder and BodyLanguage model FoxedUp or BRILLIANT.MOD
:root
   order TX TY TZ RX RY RZ
   axis XYZ
   position 0 0 0  
   orientation 0 0 0 
:bonedata
  begin
     id 1 
     name lhipjoint
     direction 0.78388 -0.462562 0.414208 
     length 3.01181 
     axis 0 0 0  XYZ
  end
  begin
     id 2 
     name lfemur
     direction 0.34202 -0.939693 0  
     length 6.04673  
     axis 0 0 20  XYZ
    dof rx ry rz
    limits (-160.0 20.0)
           (-70.0 70.0)
           (-60.0 70.0)
  end
  begin
     id 3 
     name ltibia
     direction 0.34202 -0.939693 0   
     length 7.211   
     axis 0 0 20   XYZ
    dof rx
    limits (-10.0 170.0)
  end
  begin
     id 4 
     name lfoot
     direction 0.121887 -0.334882 0.934344   
     length 2.13567   
     axis -90 7.62852e-016 20   XYZ
    dof rx rz
    limits (-45.0 90.0)
           (-70.0 20.0)
  end
  begin
     id 5 
     name ltoes
     direction 1.53555e-011 -4.2179e-011 1   
     length 1.05957   
     axis -90 7.62852e-016 20   XYZ
    dof rx
    limits (-90.0 20.0)
  end
  begin
     id 6 
     name rhipjoint
     direction -0.769387 -0.475875 0.426129   
     length 2.92756  
     axis 0 0 0  XYZ 
  end
  begin
     id 7 
     name rfemur
     direction -0.34202 -0.939693 0   
     length 6.35468   
     axis 0 0 -20   XYZ
    dof rx ry rz
    limits (-160.0 20.0)
           (-70.0 70.0)
           (-70.0 60.0)
  end
  begin
     id 8 
     name rtibia
     direction -0.34202 -0.939693 0   
     length 7.37886   
     axis 0 0 -20   XYZ
    dof rx
    limits (-10.0 170.0)
 end
 begin
     id 9 
     name rfoot
     direction -0.101763 -0.279592 0.954711   
     length 2.21478  
     axis -90 -7.62852e-016 -20   XYZ
    dof rx rz
    limits (-45.0 90.0)
           (-20.0 70.0)
  end
  begin
     id 10 
     name rtoes
     direction -1.53494e-011 -4.21851e-011 1   
     length 1.10506   
     axis -90 -7.62852e-016 -20   XYZ
    dof rx
    limits (-90.0 20.0)
  end
  begin
     id 11 
     name lowerback
     direction 0.00747405 0.999267 0.0375481   
     length 2.13259   
     axis 0 0 0   XYZ
    dof rx ry rz
    limits (-20.0 45.0)
           (-30.0 30.0)
           (-30.0 30.0)
  end
  begin
     id 12 
     name upperback
     direction 0.00661626 0.996177 0.0871029   
     length 2.10528   
     axis 0 0 0   XYZ
    dof rx ry rz
    limits (-20.0 45.0)
           (-30.0 30.0)
           (-30.0 30.0)
  end
  begin
     id 13 
     name thorax
     direction 0.00320659 0.997679 0.0680167   
     length 2.11338   
     axis 0 0 0   XYZ
    dof rx ry rz
    limits (-20.0 45.0)
           (-30.0 30.0)
           (-30.0 30.0)
  end
  begin
     id 14 
     name lowerneck
     direction 0.0374841 0.973033 0.227602   
     length 1.42765   
     axis 0 0 0   XYZ
    dof rx ry rz
    limits (-20.0 45.0)
           (-30.0 30.0)
           (-30.0 30.0)
  end
  begin
     id 15 
     name upperneck
     direction 0.00481585 0.989155 -0.146795   
     length 1.47593   
     axis 0 0 0   XYZ
    dof rx ry rz
    limits (-20.0 45.0)
           (-30.0 30.0)
           (-30.0 30.0)
  end
  begin
     id 16
     name head
     direction -0.00292522 0.997206 -0.0746423  
     length 1.48116  
     axis 0 0 0   XYZ
    dof rx ry rz
    limits (-20.0 45.0)
           (-30.0 30.0)
           (-30.0 30.0)
  end
  begin
     id 17 
     name lclavicle
     direction 0.951444 0.305606 0.0368784  
     length 3.01855  
     axis 0 0 0   XYZ
    dof ry rz
    limits (-20.0 10.0)
           (0.0 20.0)
  end
  begin
     id 18 
     name lhumerus
     direction 1 -4.48977e-011 2.61664e-027   
     length 5.52731   
     axis 180 -30 -90   XYZ
    dof rx ry rz
    limits (-60.0 90.0)
           (-90.0 90.0)
           (-90.0 90.0)
  end
  begin
     id 19
     name lradius
     direction 1 -4.48944e-011 8.22157e-027   
     length 3.11059   
     axis 180 -30 -90   XYZ
    dof rx
    limits (-10.0 170.0)
  end
  begin
     id 20
     name lwrist
     direction 1 -4.48976e-011 1.5779e-026   
     length 1.5553   
     axis -1.15221e-014 90 90   XYZ
    dof ry
    limits (-180.0 0.0)
 end
  begin
     id 21 
     name lhand
     direction 1 -4.49025e-011 3.1558e-026   
     length 0.419626   
     axis -2.01367e-014 90 90   XYZ
    dof rx rz
    limits (-90.0 90.0)
           (-45.0 45.0)
  end
  begin
     id 22 
     name lfingers
     direction 1 -4.4904e-011 6.31161e-026   
     length 0.338313   
     axis -4.02734e-014 90 90   XYZ
    dof rx
    limits (0.0 90.0)
  end
  begin
     id 23
     name lthumb
     direction 0.707107 -6.35004e-011 0.707107   
     length 0.485752   
     axis -90 45 2.85299e-015   XYZ
    dof rx rz
    limits (-45.0 45.0)
           (-45.0 45.0)
  end
  begin
     id 24 
     name rclavicle
     direction -0.968876 0.223791 0.105816   
     length 3.04177  
     axis 0 0 0   XYZ 
    dof ry rz
    limits (-10.0 20.0)
           (-20.0 0.0)
  end
  begin
     id 25 
     name rhumerus
     direction -1 -4.48962e-011 -1.01384e-027  
     length 5.25396   
     axis 180 30 90   XYZ
    dof rx ry rz
    limits (-90.0 60.0)
           (-90.0 90.0)
           (-90.0 90.0)
  end
  begin
     id 26 
     name rradius
     direction -1 -4.48955e-011 8.88542e-027   
     length 3.10567   
     axis 180 30 90   XYZ
    dof rx
    limits (-10.0 170.0)
  end
  begin
     id 27 
     name rwrist
     direction -1 -4.48994e-011 1.5779e-026   
     length 1.55283   
     axis -1.15221e-014 -90 -90   XYZ
    dof ry
    limits (-180.0 0.0)
  end
  begin
     id 28
     name rhand
     direction -1 -4.48891e-011 3.1558e-026   
     length 0.498676   
     axis -2.01367e-014 -90 -90   XYZ
    dof rx rz
    limits (-90.0 90.0)
           (-45.0 45.0)
  end
  begin
     id 29
     name rfingers
     direction -1 -4.48972e-011 6.31161e-026   
     length 0.402045   
     axis -4.02734e-014 -90 -90   XYZ
    dof rx
    limits (0.0 90.0)
  end
  begin
     id 30
     name rthumb
     direction -0.707107 -6.34849e-011 0.707107   
     length 0.577259   
     axis -90 -45 -2.85299e-015   XYZ
    dof rx rz
    limits (-45.0 45.0)
           (-45.0 45.0)
  end
:hierarchy
  begin
    root lhipjoint rhipjoint lowerback
    lhipjoint lfemur
    lfemur ltibia
    ltibia lfoot
    lfoot ltoes
    rhipjoint rfemur
    rfemur rtibia
    rtibia rfoot
    rfoot rtoes
    lowerback upperback
    upperback thorax
    thorax lowerneck lclavicle rclavicle
    lowerneck upperneck
    upperneck head
    lclavicle lhumerus
    lhumerus lradius
    lradius lwrist
    lwrist lhand lthumb
    lhand lfingers
    rclavicle rhumerus
    rhumerus rradius
    rradius rwrist
    rwrist rhand rthumb
    rhand rfingers
  end

#!OML:ASF H:\Pregnant\Project 1\Capture day 1\Session 1\femalepreg.ASF
:FULLY-SPECIFIED
:DEGREES
166
root 3.32156 15.2539 21.4639 197.897 29.1742 -178.996
lowerback -13.1811 3.28627 3.22052
upperback -5.14885 4.50135 -2.38416
thorax 2.38167 2.40605 -3.60992
lowerneck -26.1397 1.16331 3.05967
upperneck 23.9513 3.37358 -8.52279
head 12.5131 0.744322 -3.14225
rclavicle -6.09648e-014 -1.31198e-014
rhumerus -25.5698 -42.2638 1.5477
rradius 24.9968
rwrist 15.4572
rhand -10.7655 -16.567
rfingers 7.12502
rthumb 15.2464 -45.9851
lclavicle -6.09648e-014 -1.31198e-014
lhumerus -28.7837 44.0418 -14.1161
lradius 25.6371
lwrist 9.20505
lhand -28.5681 3.98498
lfingers 7.12502
lthumb -1.93461 33.956
rfemur -36.4314 41.7699 7.2902
rtibia 40.8558
rfoot -24.5592 3.37346
rtoes -7.02488
lfemur -41.5833 -23.6935 -4.7605
ltibia 31.2217
lfoot -12.9316 -11.9405
ltoes -12.8825
167
root 3.27819 15.2591 21.4216 197.809 30.3127 -179.548
lowerback -13.3244 3.108 2.6591
upperback -5.1942 4.34166 -2.47237
thorax 2.36712 2.33222 -3.4062
lowerneck -26.0528 0.707574 2.70711
upperneck 24.2041 2.84897 -8.36859
head 12.55 0.498761 -3.12442
rclavicle -3.0091e-014 -9.54166e-015
rhumerus -25.6269 -42.4827 1.66721
rradius 24.8772
rwrist 15.7091
rhand -10.5864 -16.5361
rfingers 7.12502
rthumb 15.4189 -45.9411
lclavicle -3.0091e-014 -9.54166e-015
lhumerus -28.7357 43.9498 -13.8875
lradius 25.5823
lwrist 9.124
lhand -28.3525 4.0924
lfingers 7.12502
lthumb -1.72632 34.0652
rfemur -37.2845 42.1007 5.93879
rtibia 41.3037
rfoot -24.7718 3.66025
rtoes -6.62717
lfemur -41.0907 -23.227 -5.78308
ltibia 30.8317
lfoot -12.9036 -11.4602
ltoes -12.6879
168
root 3.23479 15.2638 21.381 197.712 31.4338 -180.066
lowerback -13.4559 2.92392 2.13702
upperback -5.22789 4.1692 -2.54495
thorax 2.36099 2.25162 -3.21061
lowerneck -25.9513 0.198383 2.28694
upperneck 24.454 2.26913 -8.1967
head 12.5817 0.224907 -3.09755
rclavicle -2.22142e-014 3.22031e-014
rhumerus -25.6513 -42.7796 1.78376
rradius 24.741
rwrist 16.027
rhand -10.3858 -16.541
rfingers 7.12502
rthumb 15.6121 -45.9309
lclavicle -2.22142e-014 3.22031e-014
lhumerus -28.6973 43.9586 -13.6934
lradius 25.5142
lwrist 8.97614
lhand -28.1103 4.22682
lfingers 7.12502
lthumb -1.49244 34.2013
rfemur -38.1145 42.3635 4.65988
rtibia 41.738
rfoot -24.9454 3.96
rtoes -6.16874
lfemur -40.6164 -22.7583 -6.74788
ltibia 30.4473
lfoot -12.8707 -11.0134
ltoes -12.5256
169
root 3.191 15.2679 21.3422 197.609 32.537 -180.538
lowerback -13.565 2.74009 1.6674
upperback -5.2537 3.98986 -2.59997
thorax 2.35478 2.16683 -3.02825
lowerneck -25.8296 -0.361402 1.80421
upperneck 24.7173 1.64161 -8.01748
head 12.6156 -0.0745354 -3.06542
rclavicle -5.561e-014 3.18055e-015
rhumerus -25.6544 -43.1209 1.90708
rradius 24.5986
rwrist 16.3827
rhand -10.1677 -16.5782
rfingers 7.12502
rthumb 15.8222 -45.9517
lclavicle -5.561e-014 3.18055e-015
lhumerus -28.6519 44.0571 -13.5182
lradius 25.4331
lwrist 8.76043
lhand -27.7926 4.36339
lfingers 7.12502
lthumb -1.18562 34.3398
rfemur -38.8975 42.5467 3.48658
rtibia 42.1487
rfoot -25.0745 4.24537
rtoes -5.68385
lfemur -40.1619 -22.2804 -7.65093
ltibia 30.0815
lfoot -12.8349 -10.6063
ltoes -12.3655
170
root 3.14656 15.2714 21.3053 197.504 33.62 -180.957
lowerback -13.6508 2.5563 1.25518
upperback -5.26819 3.80152 -2.63402
thorax 2.35146 2.0765 -2.85858
lowerneck -25.6999 -0.96081 1.25768
upperneck 25.0059 0.982383 -7.82827
head 12.6615 -0.392616 -3.02452
rclavicle -9.00619e-014 -1.90833e-014
rhumerus -25.6276 -43.4977 2.02513
rradius 24.4588
rwrist 16.7652
rhand -9.93357 -16.6341
rfingers 7.12502
rthumb 16.0476 -45.9895
lclavicle -9.00619e-014 -1.90833e-014
lhumerus -28.5974 44.1474 -13.3289
lradius 25.3654
lwrist 8.58769
lhand -27.4692 4.50752
lfingers 7.12502
lthumb -0.87323 34.4855
rfemur -39.6115 42.6332 2.44962
rtibia 42.533
rfoot -25.1644 4.50448
rtoes -5.08734
lfemur -39.7331 -21.8006 -8.48482
ltibia 29.7443
lfoot -12.7931 -10.2287
ltoes -12.1655
171
root 3.10155 15.2745 21.2704 197.399 34.6863 -181.326
lowerback -13.7119 2.36967 0.894395
upperback -5.27868 3.60108 -2.64436
thorax 2.34184 1.97923 -2.69607
lowerneck -25.5158 -1.59115 0.649798
upperneck 25.31 0.305082 -7.63803
head 12.7085 -0.722971 -2.97515
rclavicle 3.21783e-015 -9.14409e-015
rhumerus -25.552 -43.8552 2.11346
rradius 24.3309
rwrist 17.1277
rhand -9.7162 -16.7221
rfingers 7.12502
rthumb 16.2569 -46.0606
lclavicle 3.21783e-015 -9.14409e-015
lhumerus -28.5374 44.1275 -13.1074
lradius 25.333
lwrist 8.53941
lhand -27.1369 4.65936
lfingers 7.12502
lthumb -0.552286 34.6384
rfemur -40.2401 42.6084 1.57256
rtibia 42.8981
rfoot -25.2117 4.71334
rtoes -4.40967
lfemur -39.3288 -21.3181 -9.25456
ltibia 29.4427
lfoot -12.7544 -9.87071
ltoes -11.9413
172
root 3.05611 15.2773 21.2377 197.303 35.7336 -181.637
lowerback -13.7547 2.18726 0.592752
upperback -5.28071 3.39655 -2.63849
thorax 2.33526 1.87884 -2.5511
lowerneck -25.272 -2.25029 -0.023774
upperneck 25.6197 -0.393171 -7.43287
head 12.7525 -1.06579 -2.91116
rclavicle -4.59193e-014 -3.85642e-014
rhumerus -25.4601 -44.1898 2.18747
rradius 24.2216
rwrist 17.4501
rhand -9.51802 -16.8361
rfingers 7.12502
rthumb 16.4477 -46.1589
lclavicle -4.59193e-014 -3.85642e-014
lhumerus -28.4451 44.0495 -12.8473
lradius 25.3226
lwrist 8.56403
lhand -26.7913 4.80432
lfingers 7.12502
lthumb -0.218497 34.784
rfemur -40.7775 42.4633 0.878771
rtibia 43.2521
rfoot -25.2185 4.84368
rtoes -3.68864
lfemur -38.9527 -20.8264 -9.95619
ltibia 29.1789
lfoot -12.7207 -9.5239
ltoes -11.7088
173
root 3.01012 15.2801 21.2072 197.216 36.7646 -181.903
lowerback -13.7787 2.00603 0.33647
upperback -5.27909 3.18598 -2.61774
thorax 2.32543 1.77464 -2.41771
lowerneck -24.9399 -2.92407 -0.753076
upperneck 25.9134 -1.09959 -7.21618
head 12.7812 -1.41462 -2.83166
rclavicle 3.04016e-014 2.82274e-014
rhumerus -25.3442 -44.4838 2.23498
rradius 24.1345
rwrist 17.7109
rhand -9.3694 -16.9734
rfingers 7.12502
rthumb 16.5908 -46.2843
lclavicle 3.04016e-014 2.82274e-014
lhumerus -28.3396 43.9296 -12.5653
lradius 25.3341
lwrist 8.63288
lhand -26.5102 4.92364
lfingers 7.12502
lthumb 0.0529977 34.9034
rfemur -41.2241 42.1884 0.367872
rtibia 43.6074
rfoot -25.2072 4.87812
rtoes -2.85509
lfemur -38.6058 -20.341 -10.5956
ltibia 28.9494
lfoot -12.6886 -9.17587
ltoes -11.4539
174
root 2.9639 15.2834 21.1791 197.14 37.7811 -182.126
lowerback -13.7852 1.8269 0.119229
upperback -5.27492 2.97153 -2.58492
thorax 2.31161 1.66781 -2.29479
lowerneck -24.4862 -3.60089 -1.53322
upperneck 26.1561 -1.80866 -6.98244
head 12.7747 -1.76566 -2.73176
rclavicle 2.04127e-014 2.26615e-014
rhumerus -25.2104 -44.7142 2.25279
rradius 24.0709
rwrist 17.8886
rhand -9.29163 -17.1299
rfingers 7.12502
rthumb 16.6657 -46.4345
lclavicle 2.04127e-014 2.26615e-014
lhumerus -28.2144 43.7586 -12.2578
lradius 25.3672
lwrist 8.73815
lhand -26.2818 5.00922
lfingers 7.12502
lthumb 0.273537 34.9888
rfemur -41.5867 41.7956 0.0359942
rtibia 43.9712
rfoot -25.1767 4.78562
rtoes -2.01303
lfemur -38.2842 -19.8597 -11.176
ltibia 28.7487
lfoot -12.6639 -8.82087
ltoes -11.2197
175
root 2.9176 15.287 21.1528 197.069 38.7906 -182.316
lowerback -13.7801 1.65038 -0.0689427
upperback -5.26006 2.75487 -2.54432
thorax 2.30525 1.55904 -2.18047
lowerneck -24.0061 -4.25306 -2.29443
upperneck 26.3806 -2.49233 -6.77563
head 12.7648 -2.10776 -2.63896
rclavicle 1.35646e-013 1.03368e-014
rhumerus -25.062 -44.9186 2.24507
rradius 24.0251
rwrist 18.0049
rhand -9.2679 -17.2728
rfingers 7.12502
rthumb 16.6885 -46.5754
lclavicle 1.35646e-013 1.03368e-014
lhumerus -28.0796 43.5501 -11.9336
lradius 25.4218
lwrist 8.87118
lhand -26.1088 5.02783
lfingers 7.12502
lthumb 0.440674 35.0071
rfemur -41.8746 41.2911 -0.132104
rtibia 44.3527
rfoot -25.1268 4.54833
rtoes -1.25018
lfemur -37.9787 -19.3898 -11.7096
ltibia 28.5699
lfoot -12.649 -8.44494
ltoes -11.046
176
root 2.87143 15.2908 21.1281 196.998 39.7984 -182.482
lowerback -13.7653 1.47383 -0.237259
upperback -5.2305 2.53358 -2.49807
thorax 2.31088 1.44708 -2.07199
lowerneck -23.5295 -4.86465 -3.00556
upperneck 26.5784 -3.13691 -6.60723
head 12.7523 -2.43403 -2.56115
rclavicle -3.76945e-014 -3.18055e-015
rhumerus -24.8894 -45.0995 2.19606
rradius 23.9968
rwrist 18.0611
rhand -9.29465 -17.3859
rfingers 7.12502
rthumb 16.6628 -46.6906
lclavicle -3.76945e-014 -3.18055e-015
lhumerus -27.9485 43.3274 -11.6146
lradius 25.4917
lwrist 9.01073
lhand -26.0199 4.98885
lfingers 7.12502
lthumb 0.526498 34.9679
rfemur -42.0937 40.6874 -0.154147
rtibia 44.753
rfoot -25.0548 4.14566
rtoes -0.670589
lfemur -37.6837 -18.9426 -12.2019
ltibia 28.4097
lfoot -12.6432 -8.0343
ltoes -10.9348
